<svg xmlns="http://www.w3.org/2000/svg" viewBox="0 0 200 200" width="200" height="200"><defs><linearGradient id="gra" gradientUnits="userSpaceOnUse" x1="120" y1="0" x2="330" y2="512"><stop offset="0" stop-color="#7b828b"></stop><stop offset="0.2" stop-color="#5b626b"></stop><stop offset="0.46" stop-color="#33383f"></stop><stop offset="0.56" stop-color="#697079"></stop><stop offset="0.74" stop-color="#3b4148"></stop><stop offset="1" stop-color="#22262b"></stop></linearGradient></defs><g transform="translate(47.5 40) scale(0.234375)"><path fill="url(#gra)" d="M202 128.39A128 128 0 0 1 202 383.61Q192 384 192 374L192 330Q192 320 201.96 319.22A64 64 0 0 0 201.96 192.78Q192 192 192 182L192 138Q192 128 202 128.39ZM182 447.74A192 192 0 0 1 182 64.26Q192 64 192 74L192 118Q192 128 182 128.39A128 128 0 0 0 182 383.61Q192 384 192 394L192 438Q192 448 182 447.74ZM202 0.2A256 256 0 0 1 202 511.8Q192 512 192 502L192 458Q192 448 202 447.74A192 192 0 0 0 202 64.26Q192 64 192 54L192 10Q192 0 202 0.2Z"></path></g></svg>