<!-- This Source Code Form is subject to the terms of the Mozilla Public
   - License, v. 2.0. If a copy of the MPL was not distributed with this
   - file, You can obtain one at http://mozilla.org/MPL/2.0/. -->
<!-- Koi: the ghost (privatebrowsing/favicon.svg) on a disk of --koi-private
   - (koi-theme.css), standing in for the purple mask 157 draws as the
   - private-browsing indicator button and the about:privatebrowsing logo.
   - Same file as indicator-private-browsing.svg. -->
<svg xmlns="http://www.w3.org/2000/svg" width="48" height="48" viewBox="0 0 20 20"><circle cx="10" cy="10" r="10" fill="rgb(122, 92, 255)"/><path fill="#fff" fill-rule="evenodd" transform="translate(4 4) scale(0.75)" d="M2.25 13.6V6.75A5.75 5.75 0 0 1 13.75 6.75V13.6Q12.6 15.4 11.45 13.6T9.15 13.6T6.85 13.6T4.55 13.6T2.25 13.6ZM4.8 6.9a1.1 1.55 0 1 0 2.2 0a1.1 1.55 0 1 0-2.2 0ZM9 6.9a1.1 1.55 0 1 0 2.2 0a1.1 1.55 0 1 0-2.2 0Z"/></svg>
